<mxfile host="app.diagrams.net" agent="Mozilla/5.0 (Windows NT 10.0; Win64; x64) AppleWebKit/537.36 (KHTML, like Gecko) Chrome/138.0.0.0 Safari/537.36" version="28.0.6">
  <diagram name="Page-1" id="b5b7bab2-c9e2-2cf4-8b2a-24fd1a2a6d21">
    <mxGraphModel dx="1204" dy="1673" grid="1" gridSize="10" guides="1" tooltips="1" connect="1" arrows="1" fold="1" page="1" pageScale="1" pageWidth="827" pageHeight="1169" background="none" math="0" shadow="0">
      <root>
        <mxCell id="0" />
        <mxCell id="1" parent="0" />
        <mxCell id="gPABJ9vJTlxGRYvXnHCs-1" value="" style="shape=folder;fontStyle=1;spacingTop=10;tabWidth=40;tabHeight=14;tabPosition=left;html=1;whiteSpace=wrap;" vertex="1" parent="1">
          <mxGeometry x="160" y="190" width="600" height="810" as="geometry" />
        </mxCell>
        <mxCell id="gPABJ9vJTlxGRYvXnHCs-2" value="&lt;font style=&quot;font-size: 36px;&quot;&gt;MORA&lt;/font&gt;" style="text;html=1;align=center;verticalAlign=middle;whiteSpace=wrap;rounded=0;" vertex="1" parent="1">
          <mxGeometry x="160" y="200" width="220" height="160" as="geometry" />
        </mxCell>
        <mxCell id="gPABJ9vJTlxGRYvXnHCs-3" value="Producto" style="shape=module;align=left;spacingLeft=20;align=center;verticalAlign=top;whiteSpace=wrap;html=1;" vertex="1" parent="1">
          <mxGeometry x="350" y="250" width="100" height="50" as="geometry" />
        </mxCell>
        <mxCell id="gPABJ9vJTlxGRYvXnHCs-4" value="Servicio" style="shape=module;align=left;spacingLeft=20;align=center;verticalAlign=top;whiteSpace=wrap;html=1;" vertex="1" parent="1">
          <mxGeometry x="350" y="330" width="100" height="50" as="geometry" />
        </mxCell>
        <mxCell id="gPABJ9vJTlxGRYvXnHCs-5" value="&lt;font style=&quot;font-size: 18px;&quot;&gt;&lt;b&gt;Diagrama de Componentes&lt;/b&gt;&lt;/font&gt;" style="text;html=1;align=center;verticalAlign=middle;whiteSpace=wrap;rounded=0;" vertex="1" parent="1">
          <mxGeometry x="30" y="-10" width="130" height="30" as="geometry" />
        </mxCell>
        <mxCell id="gPABJ9vJTlxGRYvXnHCs-7" value="Venta" style="shape=module;align=left;spacingLeft=20;align=center;verticalAlign=top;whiteSpace=wrap;html=1;" vertex="1" parent="1">
          <mxGeometry x="580" y="390" width="100" height="50" as="geometry" />
        </mxCell>
        <mxCell id="gPABJ9vJTlxGRYvXnHCs-8" value="Compra" style="shape=module;align=left;spacingLeft=20;align=center;verticalAlign=top;whiteSpace=wrap;html=1;" vertex="1" parent="1">
          <mxGeometry x="580" y="310" width="100" height="50" as="geometry" />
        </mxCell>
        <mxCell id="gPABJ9vJTlxGRYvXnHCs-9" value="Inventario" style="shape=module;align=left;spacingLeft=20;align=center;verticalAlign=top;whiteSpace=wrap;html=1;" vertex="1" parent="1">
          <mxGeometry x="580" y="230" width="100" height="50" as="geometry" />
        </mxCell>
        <mxCell id="gPABJ9vJTlxGRYvXnHCs-18" value="" style="ellipse;whiteSpace=wrap;html=1;align=center;aspect=fixed;fillColor=none;strokeColor=none;resizable=0;perimeter=centerPerimeter;rotatable=0;allowArrows=0;points=[];outlineConnect=1;" vertex="1" parent="1">
          <mxGeometry x="500" y="260" width="10" height="10" as="geometry" />
        </mxCell>
        <mxCell id="gPABJ9vJTlxGRYvXnHCs-22" value="" style="rounded=0;orthogonalLoop=1;jettySize=auto;html=1;endArrow=halfCircle;endFill=0;endSize=6;strokeWidth=1;sketch=0;exitX=0;exitY=0;exitDx=0;exitDy=15;exitPerimeter=0;fontSize=12;curved=1;" edge="1" parent="1">
          <mxGeometry relative="1" as="geometry">
            <mxPoint x="530" y="345" as="sourcePoint" />
            <mxPoint x="530" y="345" as="targetPoint" />
          </mxGeometry>
        </mxCell>
        <mxCell id="gPABJ9vJTlxGRYvXnHCs-29" value="" style="ellipse;whiteSpace=wrap;html=1;align=center;aspect=fixed;fillColor=none;strokeColor=none;resizable=0;perimeter=centerPerimeter;rotatable=0;allowArrows=0;points=[];outlineConnect=1;" vertex="1" parent="1">
          <mxGeometry x="525" y="415" width="10" height="10" as="geometry" />
        </mxCell>
        <mxCell id="gPABJ9vJTlxGRYvXnHCs-35" value="" style="ellipse;whiteSpace=wrap;html=1;align=center;aspect=fixed;fillColor=none;strokeColor=none;resizable=0;perimeter=centerPerimeter;rotatable=0;allowArrows=0;points=[];outlineConnect=1;" vertex="1" parent="1">
          <mxGeometry x="535" y="430" width="10" height="10" as="geometry" />
        </mxCell>
        <mxCell id="gPABJ9vJTlxGRYvXnHCs-36" value="" style="rounded=0;orthogonalLoop=1;jettySize=auto;html=1;endArrow=halfCircle;endFill=0;endSize=6;strokeWidth=1;sketch=0;exitX=0;exitY=0;exitDx=0;exitDy=35;exitPerimeter=0;" edge="1" target="gPABJ9vJTlxGRYvXnHCs-38" parent="1" source="gPABJ9vJTlxGRYvXnHCs-9">
          <mxGeometry relative="1" as="geometry">
            <mxPoint x="560" y="325" as="sourcePoint" />
          </mxGeometry>
        </mxCell>
        <mxCell id="gPABJ9vJTlxGRYvXnHCs-37" value="" style="rounded=0;orthogonalLoop=1;jettySize=auto;html=1;endArrow=oval;endFill=0;sketch=0;sourcePerimeterSpacing=0;targetPerimeterSpacing=0;endSize=10;exitX=1;exitY=0.75;exitDx=0;exitDy=0;" edge="1" target="gPABJ9vJTlxGRYvXnHCs-38" parent="1" source="gPABJ9vJTlxGRYvXnHCs-3">
          <mxGeometry relative="1" as="geometry">
            <mxPoint x="520" y="325" as="sourcePoint" />
          </mxGeometry>
        </mxCell>
        <mxCell id="gPABJ9vJTlxGRYvXnHCs-38" value="" style="ellipse;whiteSpace=wrap;html=1;align=center;aspect=fixed;fillColor=none;strokeColor=none;resizable=0;perimeter=centerPerimeter;rotatable=0;allowArrows=0;points=[];outlineConnect=1;" vertex="1" parent="1">
          <mxGeometry x="535" y="320" width="10" height="10" as="geometry" />
        </mxCell>
        <mxCell id="gPABJ9vJTlxGRYvXnHCs-39" value="" style="rounded=0;orthogonalLoop=1;jettySize=auto;html=1;endArrow=halfCircle;endFill=0;endSize=6;strokeWidth=1;sketch=0;fontSize=12;curved=1;exitX=0;exitY=0;exitDx=0;exitDy=35;exitPerimeter=0;entryX=0.631;entryY=0.822;entryDx=0;entryDy=0;entryPerimeter=0;" edge="1" target="gPABJ9vJTlxGRYvXnHCs-38" parent="1" source="gPABJ9vJTlxGRYvXnHCs-8">
          <mxGeometry relative="1" as="geometry">
            <mxPoint x="555" y="375" as="sourcePoint" />
          </mxGeometry>
        </mxCell>
        <mxCell id="gPABJ9vJTlxGRYvXnHCs-40" value="" style="ellipse;whiteSpace=wrap;html=1;align=center;aspect=fixed;fillColor=none;strokeColor=none;resizable=0;perimeter=centerPerimeter;rotatable=0;allowArrows=0;points=[];outlineConnect=1;" vertex="1" parent="1">
          <mxGeometry x="530" y="370" width="10" height="10" as="geometry" />
        </mxCell>
        <mxCell id="gPABJ9vJTlxGRYvXnHCs-42" value="" style="ellipse;whiteSpace=wrap;html=1;align=center;aspect=fixed;fillColor=none;strokeColor=none;resizable=0;perimeter=centerPerimeter;rotatable=0;allowArrows=0;points=[];outlineConnect=1;" vertex="1" parent="1">
          <mxGeometry x="535" y="395" width="10" height="10" as="geometry" />
        </mxCell>
        <mxCell id="gPABJ9vJTlxGRYvXnHCs-43" value="" style="rounded=0;orthogonalLoop=1;jettySize=auto;html=1;endArrow=halfCircle;endFill=0;endSize=6;strokeWidth=1;sketch=0;fontSize=12;curved=1;exitX=0;exitY=0;exitDx=0;exitDy=15;exitPerimeter=0;entryX=0.059;entryY=1.149;entryDx=0;entryDy=0;entryPerimeter=0;" edge="1" target="gPABJ9vJTlxGRYvXnHCs-38" parent="1" source="gPABJ9vJTlxGRYvXnHCs-7">
          <mxGeometry relative="1" as="geometry">
            <mxPoint x="550" y="400" as="sourcePoint" />
          </mxGeometry>
        </mxCell>
        <mxCell id="gPABJ9vJTlxGRYvXnHCs-44" value="" style="ellipse;whiteSpace=wrap;html=1;align=center;aspect=fixed;fillColor=none;strokeColor=none;resizable=0;perimeter=centerPerimeter;rotatable=0;allowArrows=0;points=[];outlineConnect=1;" vertex="1" parent="1">
          <mxGeometry x="525" y="395" width="10" height="10" as="geometry" />
        </mxCell>
        <mxCell id="gPABJ9vJTlxGRYvXnHCs-46" value="" style="ellipse;whiteSpace=wrap;html=1;align=center;aspect=fixed;fillColor=none;strokeColor=none;resizable=0;perimeter=centerPerimeter;rotatable=0;allowArrows=0;points=[];outlineConnect=1;" vertex="1" parent="1">
          <mxGeometry x="470" y="320" width="10" height="10" as="geometry" />
        </mxCell>
        <mxCell id="gPABJ9vJTlxGRYvXnHCs-50" value="" style="rounded=0;orthogonalLoop=1;jettySize=auto;html=1;endArrow=oval;endFill=0;sketch=0;sourcePerimeterSpacing=0;targetPerimeterSpacing=0;endSize=10;exitX=1;exitY=0.5;exitDx=0;exitDy=0;" edge="1" target="gPABJ9vJTlxGRYvXnHCs-51" parent="1" source="gPABJ9vJTlxGRYvXnHCs-4">
          <mxGeometry relative="1" as="geometry">
            <mxPoint x="470" y="355" as="sourcePoint" />
          </mxGeometry>
        </mxCell>
        <mxCell id="gPABJ9vJTlxGRYvXnHCs-51" value="" style="ellipse;whiteSpace=wrap;html=1;align=center;aspect=fixed;fillColor=none;strokeColor=none;resizable=0;perimeter=centerPerimeter;rotatable=0;allowArrows=0;points=[];outlineConnect=1;" vertex="1" parent="1">
          <mxGeometry x="535" y="320" width="10" height="10" as="geometry" />
        </mxCell>
      </root>
    </mxGraphModel>
  </diagram>
</mxfile>
